<mxfile host="app.diagrams.net" modified="2024-07-08T07:44:21.114Z" agent="Mozilla/5.0 (Windows NT 10.0; Win64; x64) AppleWebKit/537.36 (KHTML, like Gecko) Chrome/126.0.0.0 Safari/537.36" etag="OCVaOnp5PkDa4wLZAdSJ" version="24.6.4" type="onedrive">
  <diagram name="Seite-1" id="uYFrc1gs7jo3TV0n1WyW">
    <mxGraphModel dx="1434" dy="892" grid="1" gridSize="10" guides="1" tooltips="1" connect="1" arrows="1" fold="1" page="1" pageScale="1" pageWidth="827" pageHeight="1169" math="0" shadow="0">
      <root>
        <mxCell id="0" />
        <mxCell id="1" parent="0" />
        <mxCell id="4jCdjfyPryumd4yEFq4h-1" value="" style="shape=step;perimeter=stepPerimeter;whiteSpace=wrap;html=1;fixedSize=1;fillColor=#dae8fc;strokeColor=#6c8ebf;" vertex="1" parent="1">
          <mxGeometry x="60" y="60" width="120" height="80" as="geometry" />
        </mxCell>
        <mxCell id="4jCdjfyPryumd4yEFq4h-2" value="" style="shape=step;perimeter=stepPerimeter;whiteSpace=wrap;html=1;fixedSize=1;fillColor=#dae8fc;strokeColor=#6c8ebf;" vertex="1" parent="1">
          <mxGeometry x="170" y="60" width="120" height="80" as="geometry" />
        </mxCell>
        <mxCell id="4jCdjfyPryumd4yEFq4h-3" value="" style="shape=step;perimeter=stepPerimeter;whiteSpace=wrap;html=1;fixedSize=1;fillColor=#dae8fc;strokeColor=#6c8ebf;" vertex="1" parent="1">
          <mxGeometry x="610" y="60" width="120" height="80" as="geometry" />
        </mxCell>
        <mxCell id="4jCdjfyPryumd4yEFq4h-4" value="" style="shape=step;perimeter=stepPerimeter;whiteSpace=wrap;html=1;fixedSize=1;fillColor=#dae8fc;strokeColor=#6c8ebf;" vertex="1" parent="1">
          <mxGeometry x="500" y="60" width="120" height="80" as="geometry" />
        </mxCell>
        <mxCell id="4jCdjfyPryumd4yEFq4h-5" value="" style="shape=step;perimeter=stepPerimeter;whiteSpace=wrap;html=1;fixedSize=1;fillColor=#dae8fc;strokeColor=#6c8ebf;" vertex="1" parent="1">
          <mxGeometry x="390" y="60" width="120" height="80" as="geometry" />
        </mxCell>
        <mxCell id="4jCdjfyPryumd4yEFq4h-6" value="" style="shape=step;perimeter=stepPerimeter;whiteSpace=wrap;html=1;fixedSize=1;fillColor=#dae8fc;strokeColor=#6c8ebf;" vertex="1" parent="1">
          <mxGeometry x="280" y="60" width="120" height="80" as="geometry" />
        </mxCell>
        <mxCell id="4jCdjfyPryumd4yEFq4h-8" value="ATTENTION" style="text;html=1;align=center;verticalAlign=middle;whiteSpace=wrap;rounded=0;fontStyle=1" vertex="1" parent="1">
          <mxGeometry x="90" y="110" width="60" height="30" as="geometry" />
        </mxCell>
        <mxCell id="4jCdjfyPryumd4yEFq4h-9" value="INTEREST" style="text;html=1;align=center;verticalAlign=middle;whiteSpace=wrap;rounded=0;fontStyle=1" vertex="1" parent="1">
          <mxGeometry x="200" y="110" width="60" height="30" as="geometry" />
        </mxCell>
        <mxCell id="4jCdjfyPryumd4yEFq4h-10" value="DESIRE" style="text;html=1;align=center;verticalAlign=middle;whiteSpace=wrap;rounded=0;fontStyle=1" vertex="1" parent="1">
          <mxGeometry x="310" y="110" width="60" height="30" as="geometry" />
        </mxCell>
        <mxCell id="4jCdjfyPryumd4yEFq4h-11" value="CONVICTION" style="text;html=1;align=center;verticalAlign=middle;whiteSpace=wrap;rounded=0;fontStyle=1" vertex="1" parent="1">
          <mxGeometry x="420" y="110" width="60" height="30" as="geometry" />
        </mxCell>
        <mxCell id="4jCdjfyPryumd4yEFq4h-12" value="ACTION" style="text;html=1;align=center;verticalAlign=middle;whiteSpace=wrap;rounded=0;fontStyle=1" vertex="1" parent="1">
          <mxGeometry x="530" y="110" width="60" height="30" as="geometry" />
        </mxCell>
        <mxCell id="4jCdjfyPryumd4yEFq4h-13" value="SATISFACTION" style="text;html=1;align=center;verticalAlign=middle;whiteSpace=wrap;rounded=0;fontStyle=1" vertex="1" parent="1">
          <mxGeometry x="640" y="110" width="60" height="30" as="geometry" />
        </mxCell>
        <mxCell id="4jCdjfyPryumd4yEFq4h-14" value="SICHTBAR." style="text;html=1;align=center;verticalAlign=middle;whiteSpace=wrap;rounded=0;" vertex="1" parent="1">
          <mxGeometry x="90" y="20" width="60" height="30" as="geometry" />
        </mxCell>
        <mxCell id="4jCdjfyPryumd4yEFq4h-15" value="BEKANNT." style="text;html=1;align=center;verticalAlign=middle;whiteSpace=wrap;rounded=0;" vertex="1" parent="1">
          <mxGeometry x="200" y="20" width="60" height="30" as="geometry" />
        </mxCell>
        <mxCell id="4jCdjfyPryumd4yEFq4h-16" value="ATTRAKTIV." style="text;html=1;align=center;verticalAlign=middle;whiteSpace=wrap;rounded=0;" vertex="1" parent="1">
          <mxGeometry x="310" y="20" width="60" height="30" as="geometry" />
        </mxCell>
        <mxCell id="4jCdjfyPryumd4yEFq4h-17" value="ÜBERZEUGEND." style="text;html=1;align=center;verticalAlign=middle;whiteSpace=wrap;rounded=0;" vertex="1" parent="1">
          <mxGeometry x="420" y="20" width="60" height="30" as="geometry" />
        </mxCell>
        <mxCell id="4jCdjfyPryumd4yEFq4h-18" value="VERBINDLICH." style="text;html=1;align=center;verticalAlign=middle;whiteSpace=wrap;rounded=0;" vertex="1" parent="1">
          <mxGeometry x="530" y="20" width="60" height="30" as="geometry" />
        </mxCell>
        <mxCell id="4jCdjfyPryumd4yEFq4h-19" value="VERTRAUENSVOLL." style="text;html=1;align=center;verticalAlign=middle;whiteSpace=wrap;rounded=0;" vertex="1" parent="1">
          <mxGeometry x="640" y="20" width="60" height="30" as="geometry" />
        </mxCell>
        <mxCell id="4jCdjfyPryumd4yEFq4h-20" value="Produktseite" style="rounded=1;whiteSpace=wrap;html=1;" vertex="1" parent="1">
          <mxGeometry x="60" y="150" width="430" height="30" as="geometry" />
        </mxCell>
        <mxCell id="4jCdjfyPryumd4yEFq4h-21" value="Blogbeiträge" style="rounded=1;whiteSpace=wrap;html=1;" vertex="1" parent="1">
          <mxGeometry x="60" y="190" width="210" height="30" as="geometry" />
        </mxCell>
        <mxCell id="4jCdjfyPryumd4yEFq4h-22" value="Suchmaschinenoptimierung (SEO)" style="rounded=1;whiteSpace=wrap;html=1;" vertex="1" parent="1">
          <mxGeometry x="60" y="230" width="430" height="30" as="geometry" />
        </mxCell>
        <mxCell id="4jCdjfyPryumd4yEFq4h-23" value="Produktvideo" style="rounded=1;whiteSpace=wrap;html=1;" vertex="1" parent="1">
          <mxGeometry x="60" y="270" width="210" height="30" as="geometry" />
        </mxCell>
        <mxCell id="4jCdjfyPryumd4yEFq4h-24" value="Produktlogo" style="rounded=1;whiteSpace=wrap;html=1;" vertex="1" parent="1">
          <mxGeometry x="60" y="310" width="660" height="30" as="geometry" />
        </mxCell>
        <mxCell id="4jCdjfyPryumd4yEFq4h-25" value="Google Ads/SEA" style="rounded=1;whiteSpace=wrap;html=1;" vertex="1" parent="1">
          <mxGeometry x="60" y="350" width="210" height="30" as="geometry" />
        </mxCell>
        <mxCell id="4jCdjfyPryumd4yEFq4h-26" value="Presse- /Fachartikel" style="rounded=1;whiteSpace=wrap;html=1;" vertex="1" parent="1">
          <mxGeometry x="60" y="390" width="90" height="30" as="geometry" />
        </mxCell>
        <mxCell id="4jCdjfyPryumd4yEFq4h-27" value="Advertorial" style="rounded=1;whiteSpace=wrap;html=1;" vertex="1" parent="1">
          <mxGeometry x="60" y="430" width="90" height="30" as="geometry" />
        </mxCell>
        <mxCell id="4jCdjfyPryumd4yEFq4h-28" value="doubleSlash Newsletter" style="rounded=1;whiteSpace=wrap;html=1;" vertex="1" parent="1">
          <mxGeometry x="60" y="470" width="210" height="30" as="geometry" />
        </mxCell>
        <mxCell id="4jCdjfyPryumd4yEFq4h-29" value="" style="rounded=1;whiteSpace=wrap;html=1;" vertex="1" parent="1">
          <mxGeometry x="625" y="470" width="95" height="30" as="geometry" />
        </mxCell>
        <mxCell id="4jCdjfyPryumd4yEFq4h-31" value="" style="rounded=1;whiteSpace=wrap;html=1;dashed=1;dashPattern=1 1;" vertex="1" parent="1">
          <mxGeometry x="60" y="510" width="660" height="30" as="geometry" />
        </mxCell>
        <mxCell id="4jCdjfyPryumd4yEFq4h-30" value="Mailings Hubspot" style="rounded=1;whiteSpace=wrap;html=1;" vertex="1" parent="1">
          <mxGeometry x="60" y="510" width="320" height="30" as="geometry" />
        </mxCell>
        <mxCell id="4jCdjfyPryumd4yEFq4h-32" value="Webinar" style="rounded=1;whiteSpace=wrap;html=1;" vertex="1" parent="1">
          <mxGeometry x="180" y="550" width="90" height="30" as="geometry" />
        </mxCell>
        <mxCell id="4jCdjfyPryumd4yEFq4h-33" value="Messebesuch /Speakerslot" style="rounded=1;whiteSpace=wrap;html=1;" vertex="1" parent="1">
          <mxGeometry x="60" y="591" width="210" height="30" as="geometry" />
        </mxCell>
        <mxCell id="4jCdjfyPryumd4yEFq4h-34" value="Visitenkarte" style="rounded=1;whiteSpace=wrap;html=1;" vertex="1" parent="1">
          <mxGeometry x="60" y="630" width="210" height="30" as="geometry" />
        </mxCell>
        <mxCell id="4jCdjfyPryumd4yEFq4h-35" value="Whitepaper" style="rounded=1;whiteSpace=wrap;html=1;" vertex="1" parent="1">
          <mxGeometry x="60" y="670" width="90" height="30" as="geometry" />
        </mxCell>
        <mxCell id="4jCdjfyPryumd4yEFq4h-36" value="Sales Flyer" style="rounded=1;whiteSpace=wrap;html=1;" vertex="1" parent="1">
          <mxGeometry x="60" y="710" width="210" height="30" as="geometry" />
        </mxCell>
        <mxCell id="4jCdjfyPryumd4yEFq4h-37" value="Anzeigen Print und Online" style="rounded=1;whiteSpace=wrap;html=1;" vertex="1" parent="1">
          <mxGeometry x="60" y="750" width="90" height="30" as="geometry" />
        </mxCell>
        <mxCell id="4jCdjfyPryumd4yEFq4h-38" value="Powerpoints" style="rounded=1;whiteSpace=wrap;html=1;" vertex="1" parent="1">
          <mxGeometry x="280" y="790" width="220" height="30" as="geometry" />
        </mxCell>
        <mxCell id="4jCdjfyPryumd4yEFq4h-39" value="Social Media" style="rounded=1;whiteSpace=wrap;html=1;" vertex="1" parent="1">
          <mxGeometry x="60" y="830" width="90" height="30" as="geometry" />
        </mxCell>
        <mxCell id="4jCdjfyPryumd4yEFq4h-40" value="Social Media Ads" style="rounded=1;whiteSpace=wrap;html=1;" vertex="1" parent="1">
          <mxGeometry x="185" y="870" width="90" height="30" as="geometry" />
        </mxCell>
        <mxCell id="4jCdjfyPryumd4yEFq4h-41" value="LinkedIn Ads" style="rounded=1;whiteSpace=wrap;html=1;" vertex="1" parent="1">
          <mxGeometry x="60" y="910" width="440" height="30" as="geometry" />
        </mxCell>
      </root>
    </mxGraphModel>
  </diagram>
</mxfile>
